<?xml version="1.0" standalone="no"?>
<!DOCTYPE svg PUBLIC "-//W3C//DTD SVG 20010904//EN"
 "http://www.w3.org/TR/2001/REC-SVG-20010904/DTD/svg10.dtd">
<svg version="1.0" xmlns="http://www.w3.org/2000/svg"
 width="184.000000pt" height="184.000000pt" viewBox="0 0 184.000000 184.000000"
 preserveAspectRatio="xMidYMid meet">

<g transform="translate(0.000000,184.000000) scale(0.100000,-0.100000)"
fill="currentColor" stroke="none">
<path d="M752 1611 c-40 -10 -112 -38 -160 -61 -71 -36 -103 -60 -177 -134
-49 -50 -98 -106 -108 -124 l-18 -32 63 0 64 0 79 78 c94 93 190 144 312 168
139 28 296 1 420 -72 58 -34 155 -124 195 -181 29 -43 30 -43 90 -43 53 0 59
2 54 18 -20 53 -81 133 -153 202 -136 131 -311 201 -500 199 -48 0 -121 -9
-161 -18z"/>
<path d="M858 1198 c-3 -23 -4 -23 -150 -26 -97 -2 -148 1 -148 8 0 6 -55 10
-153 10 l-153 0 -17 -53 c-9 -30 -21 -75 -26 -100 l-8 -47 123 0 c117 0 124
-1 124 -20 0 -18 7 -20 64 -20 54 0 69 4 94 25 21 17 42 25 68 25 l39 0 -109
-109 c-69 -70 -106 -113 -101 -121 5 -8 -32 -51 -101 -121 l-109 -109 103 0
c56 0 102 4 102 8 0 5 -11 19 -25 32 l-25 24 52 53 c29 29 58 51 64 49 6 -2
67 52 135 120 108 108 128 124 156 124 26 0 33 -4 33 -20 0 -16 -7 -20 -35
-20 -34 0 -35 -1 -35 -40 0 -39 1 -40 35 -40 19 0 35 -4 35 -10 0 -5 -16 -10
-35 -10 -34 0 -35 -1 -35 -40 0 -39 1 -40 35 -40 28 0 35 -4 35 -20 0 -16 -7
-20 -35 -20 l-35 0 0 -70 0 -70 115 0 115 0 0 70 0 70 -40 0 c-33 0 -40 3 -40
20 0 13 7 20 18 20 11 0 27 9 37 20 17 19 17 21 0 40 -10 11 -26 20 -37 20
-28 0 -21 18 8 22 39 4 53 32 30 57 -11 12 -27 21 -38 21 -11 0 -18 7 -18 20
0 14 7 20 23 20 15 0 61 -38 147 -125 84 -84 128 -121 135 -115 8 6 29 -9 65
-45 l54 -55 -29 -30 -29 -30 104 0 105 0 -109 109 c-73 73 -104 111 -96 116 8
5 -32 52 -121 141 -120 120 -131 134 -106 134 15 0 27 5 27 12 0 8 61 10 240
5 263 -7 250 -10 234 50 l-6 22 -234 -6 c-174 -5 -234 -3 -234 5 0 9 -35 12
-115 12 -89 0 -115 3 -115 13 0 8 -11 24 -24 36 l-24 23 -4 -24z"/>
<path d="M1524 902 c0 -48 -8 -112 -16 -144 l-16 -56 43 -42 c41 -40 44 -41
54 -22 23 44 51 190 51 270 l0 82 -57 0 -58 0 -1 -88z"/>
<path d="M203 847 c5 -68 36 -195 55 -224 6 -9 20 -1 50 30 l41 42 -14 55 c-8
30 -17 81 -21 113 l-7 57 -55 0 -55 0 6 -73z"/>
<path d="M350 472 c0 -13 120 -128 163 -158 207 -140 485 -164 704 -60 40 19
92 48 116 65 48 33 157 138 157 152 0 5 -32 9 -71 9 -69 0 -72 -1 -117 -41
-86 -76 -260 -139 -382 -139 -121 0 -290 62 -384 139 -46 39 -51 41 -117 41
-38 0 -69 -4 -69 -8z"/>
</g>
</svg>
