<?xml version="1.0" standalone="no"?>
<!DOCTYPE svg PUBLIC "-//W3C//DTD SVG 20010904//EN"
 "http://www.w3.org/TR/2001/REC-SVG-20010904/DTD/svg10.dtd">
<svg version="1.0" xmlns="http://www.w3.org/2000/svg"
 width="184.000000pt" height="184.000000pt" viewBox="0 0 184.000000 184.000000"
 preserveAspectRatio="xMidYMid meet">

<g transform="translate(0.000000,184.000000) scale(0.100000,-0.100000)"
fill="currentColor" stroke="none">
<path d="M720 1574 c-123 -26 -234 -73 -347 -147 l-63 -41 0 -391 0 -390 301
-224 c171 -127 306 -220 314 -217 7 2 147 104 309 225 l296 220 0 385 0 385
-32 25 c-103 77 -261 146 -396 172 -92 18 -296 17 -382 -2z m376 -113 c90 -19
233 -78 294 -121 l30 -22 -2 -326 -3 -327 -230 -173 c-126 -95 -240 -178 -251
-183 -19 -10 -50 10 -268 172 l-246 183 0 331 0 331 54 33 c179 108 410 146
622 102z"/>
<path d="M730 1349 c-41 -10 -103 -32 -137 -49 l-63 -29 0 -279 0 -278 181
-135 c100 -74 188 -138 196 -142 9 -6 74 36 208 135 l194 143 0 276 1 276 -66
32 c-148 72 -353 92 -514 50z m270 -214 l0 -95 100 0 100 0 0 -90 0 -90 -100
0 -100 0 0 -95 0 -95 -85 0 -85 0 0 95 0 95 -95 0 -95 0 0 90 0 90 95 0 95 0
0 95 0 95 85 0 85 0 0 -95z"/>
</g>
</svg>
