<?xml version="1.0" standalone="no"?>
<!DOCTYPE svg PUBLIC "-//W3C//DTD SVG 20010904//EN"
 "http://www.w3.org/TR/2001/REC-SVG-20010904/DTD/svg10.dtd">
<svg version="1.0" xmlns="http://www.w3.org/2000/svg"
 width="184.000000pt" height="184.000000pt" viewBox="0 0 184.000000 184.000000"
 preserveAspectRatio="xMidYMid meet">

<g transform="translate(0.000000,184.000000) scale(0.100000,-0.100000)"
fill="currentColor" stroke="none">
<path d="M532 1307 l-392 -392 393 -393 392 -392 393 393 392 392 -393 393
-392 392 -393 -393z m716 -714 l-323 -323 -322 322 -323 323 322 322 323 323
322 -322 323 -323 -322 -322z"/>
<path d="M752 1278 c8 -13 31 -49 51 -80 l37 -56 -45 -26 c-27 -16 -55 -44
-70 -71 l-26 -44 -77 49 -77 49 -3 -95 c-1 -52 -1 -135 0 -184 l3 -89 77 49
77 49 25 -44 c14 -23 45 -55 70 -71 l43 -28 -48 -75 -48 -76 95 -3 c52 -1 135
-1 184 0 l89 3 -49 77 -49 77 44 26 c27 15 55 43 70 70 l26 44 77 -49 77 -49
3 95 c1 52 1 135 0 184 l-3 89 -77 -49 -77 -49 -26 44 c-15 27 -43 55 -70 70
l-44 26 43 67 c23 37 46 73 50 80 6 9 -33 12 -180 12 l-186 0 14 -22z m248
-221 c50 -26 90 -90 90 -142 0 -18 -10 -51 -23 -75 -26 -50 -90 -90 -142 -90
-52 0 -116 40 -142 90 -13 24 -23 57 -23 75 0 52 40 116 90 142 55 29 95 29
150 0z"/>
<path d="M858 1024 c-79 -42 -76 -179 4 -220 89 -46 188 12 188 111 0 99 -104
158 -192 109z m106 -35 c47 -22 58 -95 20 -133 -38 -38 -111 -27 -133 20 -35
78 35 148 113 113z"/>
</g>
</svg>
