<?xml version="1.0" standalone="no"?>
<!DOCTYPE svg PUBLIC "-//W3C//DTD SVG 20010904//EN"
 "http://www.w3.org/TR/2001/REC-SVG-20010904/DTD/svg10.dtd">
<svg version="1.0" xmlns="http://www.w3.org/2000/svg"
 width="184.000000pt" height="184.000000pt" viewBox="0 0 184.000000 184.000000"
 preserveAspectRatio="xMidYMid meet">

<g transform="translate(0.000000,184.000000) scale(0.100000,-0.100000)"
fill="currentColor" stroke="none">
<path d="M621 1477 l-291 -212 3 -335 c3 -321 4 -338 26 -397 62 -170 200
-307 369 -365 97 -33 277 -33 374 0 171 59 311 199 370 370 22 65 23 78 23
397 l0 329 -275 203 c-151 112 -282 208 -292 213 -13 8 -76 -34 -307 -203z
m562 -116 l207 -153 0 -283 c0 -250 -2 -290 -19 -344 -48 -154 -187 -285 -342
-320 -56 -13 -172 -13 -228 0 -154 35 -294 167 -342 320 -17 54 -19 94 -19
344 l0 284 237 175 238 175 30 -23 c16 -13 123 -91 238 -175z"/>
<path d="M726 1293 l-186 -137 0 -44 c0 -32 3 -41 13 -36 6 5 90 66 185 136
104 78 178 126 185 121 7 -4 86 -61 177 -128 91 -67 171 -125 178 -129 9 -5
12 4 12 36 l0 44 -177 129 c-97 72 -182 133 -189 137 -7 5 -82 -44 -198 -129z"/>
<path d="M728 1121 l-187 -136 -1 -47 0 -48 178 131 c97 72 183 134 189 136
11 4 64 -32 311 -214 l72 -54 0 46 0 45 -132 98 c-73 54 -158 116 -188 139
l-55 40 -187 -136z"/>
<path d="M721 942 l-183 -137 4 -90 c3 -70 10 -103 30 -147 34 -73 106 -146
183 -184 54 -26 70 -29 160 -29 90 0 106 3 160 29 77 38 149 111 183 184 20
45 27 77 30 147 l4 90 -181 133 c-100 73 -187 135 -194 137 -7 2 -95 -58 -196
-133z m358 -72 l143 -105 -5 -62 c-15 -161 -142 -277 -302 -277 -160 0 -287
116 -302 277 l-5 63 152 111 c91 67 158 110 165 105 6 -4 76 -54 154 -112z"/>
</g>
</svg>
