<?xml version="1.0" standalone="no"?>
<!DOCTYPE svg PUBLIC "-//W3C//DTD SVG 20010904//EN"
 "http://www.w3.org/TR/2001/REC-SVG-20010904/DTD/svg10.dtd">
<svg version="1.0" xmlns="http://www.w3.org/2000/svg"
 width="184.000000pt" height="184.000000pt" viewBox="0 0 184.000000 184.000000"
 preserveAspectRatio="xMidYMid meet">

<g transform="translate(0.000000,184.000000) scale(0.100000,-0.100000)"
fill="currentColor" stroke="none">
<path d="M535 1300 l-380 -380 142 -142 142 -142 36 34 35 34 -107 108 -108
108 313 312 312 313 118 -118 118 -117 34 35 34 35 -149 150 c-82 83 -152 150
-155 150 -3 0 -176 -171 -385 -380z"/>
<path d="M1250 1315 l-84 -85 -32 31 c-40 39 -58 31 -50 -20 5 -36 3 -40 -84
-126 -85 -85 -90 -88 -108 -72 -36 33 -63 21 -145 -61 l-78 -78 9 -50 9 -49
-136 -137 -136 -138 60 -60 c33 -33 63 -60 66 -60 4 0 37 55 73 123 40 76 81
138 109 165 l44 43 28 -71 c16 -39 32 -73 35 -75 4 -2 21 11 39 29 l33 34 -22
42 -22 42 33 34 c18 19 42 34 53 34 11 0 45 -25 76 -55 l56 -55 44 45 44 45
-77 78 c-43 43 -74 81 -71 85 4 4 19 7 33 7 38 0 181 144 181 182 0 15 -5 30
-11 34 -7 4 23 41 75 93 l87 87 -24 22 -23 22 -84 -85z m-425 -376 c-61 -61
-83 -75 -98 -60 -8 8 6 29 53 76 57 58 66 63 79 50 14 -13 10 -21 -34 -66z
m38 -140 c-18 -19 -36 -28 -43 -24 -8 5 -2 18 21 41 22 23 36 31 43 24 7 -7 0
-20 -21 -41z"/>
<path d="M1315 1210 l-29 -30 129 -130 130 -130 -313 -312 -312 -313 -119 119
-119 118 -26 -43 -26 -44 145 -145 145 -145 382 382 383 383 -160 160 c-88 88
-165 160 -171 160 -5 0 -23 -14 -39 -30z"/>
</g>
</svg>
