<?xml version="1.0" standalone="no"?>
<!DOCTYPE svg PUBLIC "-//W3C//DTD SVG 20010904//EN"
 "http://www.w3.org/TR/2001/REC-SVG-20010904/DTD/svg10.dtd">
<svg version="1.0" xmlns="http://www.w3.org/2000/svg"
 width="184.000000pt" height="184.000000pt" viewBox="0 0 184.000000 184.000000"
 preserveAspectRatio="xMidYMid meet">

<g transform="translate(0.000000,184.000000) scale(0.100000,-0.100000)"
fill="currentColor" stroke="none">
<path d="M532 1297 l-392 -392 393 -393 392 -392 393 393 392 392 -393 393
-392 392 -393 -393z m716 -714 l-323 -323 -322 322 -323 323 322 322 323 323
322 -322 323 -323 -322 -322z"/>
<path d="M772 1268 c-7 -7 -12 -36 -12 -65 l0 -53 40 0 c44 0 46 -3 25 -40
-33 -57 -8 -135 58 -184 60 -45 166 -16 202 54 33 64 9 157 -50 196 -33 22
-34 54 0 54 34 0 80 -65 108 -154 26 -87 29 -258 4 -346 -14 -48 -14 -57 -1
-70 22 -23 42 5 59 85 39 187 -3 407 -96 503 l-31 32 -147 0 c-101 0 -151 -4
-159 -12z m247 -164 c44 -56 8 -134 -61 -134 -59 1 -97 54 -77 108 14 37 36
52 80 52 29 0 42 -6 58 -26z"/>
<path d="M707 1088 l-28 -43 31 -3 c34 -4 34 -3 18 -37 -9 -19 -19 -25 -44
-25 -30 0 -34 -4 -43 -37 -16 -57 -14 -63 19 -63 25 0 30 -4 30 -25 0 -21 -5
-25 -30 -25 -34 0 -37 -11 -19 -72 9 -34 13 -38 43 -38 25 0 35 -6 44 -25 16
-34 16 -33 -19 -37 l-31 -3 31 -42 31 -43 140 0 139 0 26 37 c31 47 31 53 0
53 -27 0 -31 10 -15 41 7 12 21 19 41 19 33 0 49 27 49 81 0 24 -4 29 -24 29
-17 0 -25 7 -28 25 -5 22 -2 25 23 25 25 0 29 4 29 28 0 15 -4 34 -10 42 -8
12 -10 12 -16 -3 -3 -10 -26 -29 -51 -43 -37 -22 -53 -26 -99 -22 -61 5 -96
26 -132 79 -20 29 -23 44 -20 102 l4 67 -31 0 c-25 0 -36 -8 -58 -42z"/>
</g>
</svg>
